<svg width="360" height="399" viewBox="0 0 360 399" fill="none" xmlns="http://www.w3.org/2000/svg">
<path d="M250.81 33.9351C252.027 34.1271 269.058 44.4357 276.87 50.5824C278.919 52.1831 287.563 59.8025 287.947 60.1867C293.133 64.6047 297.743 69.6629 302.545 74.465C303.762 75.6816 318.488 93.4815 322.97 99.8843C336.929 119.989 347.045 141.951 353.32 165.577C358.442 184.786 360.747 204.315 359.787 224.227C358.506 251.375 351.591 277.051 338.913 301.126C332.383 313.611 324.571 325.264 315.351 335.893C313.046 338.582 306.387 345.625 305.427 346.458C303.57 348.058 301.777 349.723 300.048 351.452C297.295 354.077 294.35 356.446 291.404 358.815C287.755 361.824 283.913 364.642 280.071 367.395C272.068 373.157 263.424 377.896 254.396 381.993C241.142 388.076 227.312 392.558 212.97 395.183C185.309 400.241 157.969 399.281 130.949 391.406C123.202 389.165 115.71 386.347 108.411 383.082C96.63 377.767 85.6171 371.237 75.2445 363.489C67.7531 357.919 60.71 351.836 54.1791 345.177C44.5108 335.381 35.931 324.624 28.5678 312.971C17.6829 295.811 9.87149 277.371 5.06936 257.65C0.523339 239.21 -0.88529 220.578 0.523335 201.689C2.44419 175.822 9.10314 151.299 20.3721 127.993C25.8786 116.596 32.3454 105.839 39.7087 95.5944C44.959 88.2952 50.5295 81.252 56.5482 74.5931C62.5028 68.2543 74.0279 57.1133 78.5099 52.8875C89.0746 43.7954 100.664 33.9991 100.664 33.9991C100.664 33.9991 80.4308 55.1925 68.1373 73.7607C65.6402 77.6664 63.2712 81.5722 61.0302 85.67C52.6425 101.293 46.8159 117.94 43.8705 135.484C40.5411 155.077 41.3734 174.605 46.5597 193.878C50.1453 207.132 55.5237 219.617 62.951 231.207C68.6496 240.106 75.8848 247.598 84.1444 254.129C91.3796 259.827 99.1271 264.693 106.682 269.944C112.573 274.106 118.528 278.139 123.906 283.005C131.525 289.857 138.184 297.668 144.075 306.056C157.393 325.072 166.549 345.945 171.415 368.675C172.632 374.502 173.656 380.457 174.488 386.347C174.617 387.116 174.745 388.012 174.745 388.012H185.181C185.181 388.012 185.309 387.244 185.437 386.539C186.654 378.344 188.063 370.212 190.111 362.209C191.84 355.486 193.953 348.955 196.514 342.488C202.661 326.737 210.857 312.202 221.229 298.885C229.041 288.832 238.389 280.38 248.889 273.209C255.677 268.535 262.592 264.117 269.251 259.315C277.126 253.616 284.425 247.342 290.636 239.85C296.911 232.295 301.777 223.907 305.811 215.007C311.445 202.714 315.223 189.844 316.888 176.462C318.616 162.248 318.296 147.97 315.607 133.883C313.174 120.95 309.46 108.464 303.954 96.4908C300.24 88.4232 296.014 80.6758 291.02 73.3125C280.776 58.1378 269.571 46.5486 254.332 36.4322C253.628 35.984 252.027 34.7034 250.81 33.9351Z" fill="#289225"/>
<path d="M100.28 67.934C99.8958 68.5743 99.7678 68.7664 99.5757 69.0865C90.7398 82.7246 85.0412 97.4511 82.8003 113.586C80.3672 131.258 82.6082 148.226 90.0355 164.489C94.4534 174.157 100.984 182.161 109.436 188.628C114.366 192.405 119.553 195.799 124.739 199.256C128.132 201.561 131.526 203.802 134.791 206.235C143.051 212.382 149.582 220.001 154.448 229.093C162.195 243.628 167.83 258.867 170.519 275.13C171.48 281.02 171.992 286.911 172.056 292.802C172.312 306.248 172.184 319.63 172.632 333.076C172.76 336.469 172.888 339.927 173.016 343.32C173.016 343.896 173.272 349.787 173.144 351.068C173.016 349.659 172.312 344.281 172.248 343.832C171.352 337.622 170.327 331.475 168.854 325.328C166.613 316.108 163.092 307.336 158.866 298.82C155.344 291.649 151.183 284.798 146.38 278.395C141.258 271.544 135.111 265.718 128.517 260.275C120.641 253.744 112.83 247.149 105.722 239.786C101.433 235.304 97.4627 230.502 93.8131 225.508C84.7851 213.086 78.1262 199.576 73.9643 184.786C69.7385 169.547 68.65 154.116 70.5068 138.429C72.7478 119.285 78.5103 101.293 88.0506 84.5814C92.1484 76.2577 100.664 67.0376 100.664 67.0376L100.28 67.934Z" fill="#289225"/>
<path d="M259.837 67.1658C275.011 89.1275 279.045 97.3231 283.527 110.577C289.674 128.761 291.659 147.457 289.674 166.538C288.265 180.176 284.296 193.11 278.213 205.467C275.46 211.038 272.514 216.48 268.929 221.602C267.2 224.163 265.343 226.596 263.486 229.094C261.822 231.271 260.029 233.384 258.3 235.496C256.187 237.994 253.818 240.299 251.577 242.732C249.784 244.653 247.735 246.253 245.879 248.11C242.037 251.952 237.683 255.217 233.521 258.675C231.664 260.211 229.807 261.748 227.951 263.285C225.005 265.718 222.124 268.279 219.499 271.096C216.169 274.682 213.096 278.588 210.343 282.621C201.379 295.747 194.976 309.961 190.942 325.328C189.085 332.307 188.125 339.479 187.421 346.65C187.293 348.058 187.1 349.531 186.844 351.26C186.652 346.522 186.972 342.168 187.165 337.75C187.613 326.097 187.805 314.379 187.741 302.662C187.741 297.988 187.741 293.25 187.997 288.576C188.573 276.795 190.878 265.398 194.592 254.257C197.473 245.677 201.123 237.417 205.477 229.414C211.111 218.977 218.923 210.653 228.719 204.123C234.738 200.153 240.756 196.119 246.583 191.957C251.705 188.308 256.443 184.274 260.541 179.408C265.599 173.389 269.377 166.666 272.258 159.367C277.06 147.073 278.981 134.268 278.149 121.014C277.317 106.607 273.027 93.1613 266.688 80.2916C265.471 77.7305 261.95 70.7514 259.837 67.1658Z" fill="#289225"/>
<path d="M179.74 192.661C178.844 183.697 178.844 174.413 178.268 165.193C177.691 156.421 175.835 147.97 172.697 139.71C169.688 131.77 167.063 123.703 165.398 115.315C163.989 108.336 163.413 101.293 163.349 94.1217C163.157 81.5722 164.181 69.0866 166.102 56.6651C167.383 48.4695 169.24 40.4659 171.032 32.3984C173.402 21.8977 179.804 0.448199 180.06 0C180.317 0.448199 192.098 41.9386 194.915 63.0039C196.58 75.2334 197.092 87.5268 196.644 99.8203C196.196 111.473 193.827 122.742 189.793 133.691C187.744 139.198 185.567 144.64 184.094 150.339C182.494 156.549 181.725 162.824 181.277 169.227C180.765 176.718 179.804 192.469 179.74 192.661Z" fill="#289225"/>
<path d="M186.462 260.724C186.398 259.507 186.334 258.163 186.27 256.754C185.822 244.46 185.95 232.167 185.822 219.874C185.758 214.367 185.694 208.541 186.078 203.034C186.91 191.957 188.767 181.905 193.697 171.98C196.899 165.513 200.74 159.431 204.454 153.284C209.192 145.473 213.866 137.661 217.9 129.53C222.254 120.63 225.84 111.41 227.824 101.677C229.425 93.6736 229.681 85.6061 228.657 77.4745C227.632 69.663 221.614 54.1681 221.806 53.5278C222.446 54.1041 232.627 74.9133 235.38 85.2859C239.35 100.076 240.31 115.187 238.709 130.362C237.173 144.32 233.331 157.638 227.376 170.38C222.702 180.368 216.748 189.588 210.473 198.616C206.503 204.443 202.405 210.205 199.076 216.416C195.81 222.435 193.185 228.645 191.392 235.304C189.407 242.604 187.935 248.878 187.102 256.306C186.91 257.906 186.782 258.355 186.462 260.724Z" fill="#289225"/>
<path d="M172.949 260.723C172.693 257.906 171.86 253.936 171.348 250.991C170.131 243.756 168.787 236.585 166.418 229.606C164.049 222.562 160.527 216.096 156.749 209.757C152.972 203.546 148.81 197.591 144.776 191.509C138.501 181.968 132.931 172.044 128.769 161.351C122.622 145.6 119.997 129.273 120.445 112.434C120.765 102.061 122.11 91.8165 125.055 81.828C127.36 73.9525 132.995 61.0828 137.797 53.3994C132.034 65.8849 129.729 80.5475 130.434 91.4963C130.946 99.4999 132.867 107.247 135.62 114.803C138.309 122.166 141.703 129.209 145.352 136.124C149.834 144.448 154.829 152.451 159.695 160.519C164.241 168.138 168.275 175.95 170.772 184.466C173.141 192.533 174.165 200.729 174.421 209.116C174.677 220.065 174.101 231.014 173.589 241.963C173.333 246.829 173.333 251.695 173.077 256.561C172.949 257.778 173.013 259.891 172.949 260.723Z" fill="#289225"/>
</svg>
