<svg width="992" height="324" viewBox="0 0 992 324" fill="none" xmlns="http://www.w3.org/2000/svg">
<path d="M60.285 182.899C47.9001 182.899 36.2131 180.716 25.2018 176.326C14.1906 171.948 5.79366 166.417 0 159.723L4.34245 153.995C9.80378 160.052 17.5582 165.188 27.6057 169.402C37.6532 173.627 48.4651 175.734 60.0413 175.734C71.7726 175.734 81.4213 174.142 88.9763 170.96C96.5314 167.778 102.115 163.52 105.737 158.176C109.348 152.842 111.165 146.917 111.165 140.376C111.165 132.727 109.238 126.604 105.382 121.984C101.527 117.364 96.4206 113.71 90.0731 110.999C83.7255 108.289 76.813 106.061 69.3355 104.316C61.8581 102.561 54.3031 100.695 46.6705 98.6979C39.0379 96.7116 32.0368 94.1548 25.6893 91.0492C19.3417 87.9436 14.2792 83.6419 10.5017 78.155C6.72416 72.6572 4.82988 65.5352 4.82988 56.7781C4.82988 49.294 6.83495 42.2928 10.8562 35.7634C14.8774 29.234 21.1474 23.9447 29.6662 19.8844C38.1849 15.8241 49.1187 13.7939 62.4563 13.7939C71.6176 13.7939 80.657 15.1876 89.5856 17.9749C98.5032 20.7623 106.103 24.4605 112.373 29.0804L108.761 35.5329C102.015 30.5948 94.5374 26.9295 86.3399 24.5482C78.1423 22.156 70.2661 20.9598 62.711 20.9598C51.4561 20.9598 42.0954 22.5949 34.6179 25.8541C27.1404 29.1243 21.6348 33.4589 18.101 38.869C14.5672 44.279 12.7948 50.2597 12.7948 56.7781C12.7948 64.5805 14.7223 70.7916 18.5773 75.4116C22.4324 80.0315 27.5392 83.6967 33.8868 86.3963C40.2343 89.1068 47.1911 91.3345 54.7461 93.0793C62.3012 94.8351 69.8562 96.7007 77.4112 98.6979C84.9662 100.695 91.912 103.274 98.2706 106.456C104.618 109.639 109.681 113.908 113.458 119.241C117.236 124.574 119.13 131.542 119.13 140.146C119.13 147.63 117.081 154.642 112.982 161.16C108.883 167.69 102.447 172.946 93.6955 176.93C84.9219 180.902 73.7888 182.899 60.285 182.899Z" fill="#FF5722"/>
<path d="M211.463 181.934V14.7378H270.053C284.033 14.7378 296.052 16.9655 306.1 21.4208C316.148 25.8761 323.824 32.208 329.131 40.4054C334.437 48.6138 337.084 58.5231 337.084 70.1443C337.084 81.7655 334.437 91.7296 329.131 100.004C323.824 108.289 316.148 114.654 306.1 119.109C296.052 123.564 284.033 125.792 270.053 125.792H216.038L219.66 121.973V181.923H211.463V181.934ZM219.671 121.984L216.049 118.396H270.54C289.506 118.396 304.017 114.182 314.065 105.732C324.112 97.2933 329.131 85.4307 329.131 70.1443C329.131 54.8578 324.101 43.0281 314.065 34.6771C304.017 26.3151 289.506 22.1341 270.54 22.1341H216.049L219.671 18.3152V121.984Z" fill="#FF5722"/>
<path d="M636.57 181.934V14.7378H695.16C709.14 14.7378 721.16 16.9655 731.207 21.4208C741.255 25.8761 748.932 32.208 754.238 40.4054C759.544 48.6138 762.192 58.5231 762.192 70.1443C762.192 81.7655 759.544 91.7296 754.238 100.004C748.932 108.289 741.255 114.654 731.207 119.109C721.16 123.564 709.14 125.792 695.16 125.792H641.145L644.757 121.973V181.923H636.57V181.934ZM644.768 121.984L641.156 118.396H695.648C714.613 118.396 729.125 114.182 739.172 105.732C749.22 97.2933 754.238 85.4307 754.238 70.1443C754.238 54.8578 749.209 43.0281 739.172 34.6771C729.125 26.3151 714.613 22.1341 695.648 22.1341H641.156L644.768 18.3152V121.984ZM755.202 181.934L711.312 121.26H720.717L764.839 181.934H755.202Z" fill="#FF5722"/>
<path d="M857.914 181.934V14.7378H866.112V181.945H857.914V181.934ZM864.915 138.939L864.672 128.667L976.557 14.7268H986.682L911.209 91.8833L906.39 96.6569L864.915 138.939ZM981.863 181.934L903.499 93.5513L909.049 88.0534L991.999 181.923H981.863V181.934Z" fill="#FF5722"/>
<path d="M240.242 324C236.365 324 232.721 323.605 229.32 322.815C225.919 322.025 223.238 321.147 221.266 320.181V307.144H222.163C223.659 311.666 226.052 315.276 229.364 317.976C232.676 320.675 236.387 322.014 240.508 322.014C244.507 322.014 247.709 321.026 250.135 319.04C252.55 317.054 253.757 314.519 253.757 311.413C253.757 309.175 253.081 307.309 251.741 305.806C250.401 304.302 248.684 303.084 246.59 302.151C244.496 301.208 241.97 300.33 238.979 299.518C234.925 298.343 231.646 297.202 229.131 296.083C226.628 294.964 224.578 293.416 223.005 291.43C221.421 289.444 220.635 286.909 220.635 283.803C220.635 280.961 221.455 278.404 223.094 276.144C224.734 273.883 227.06 272.116 230.073 270.843C233.086 269.57 236.565 268.934 240.497 268.934C243.599 268.934 246.69 269.285 249.758 269.998C252.827 270.712 255.297 271.469 257.147 272.281V284.253H256.25C254.821 280.182 252.649 276.945 249.758 274.53C246.867 272.116 243.355 270.909 239.245 270.909C236.974 270.909 234.903 271.304 233.02 272.094C231.136 272.884 229.63 274.026 228.5 275.529C227.37 277.032 226.805 278.799 226.805 280.829C226.805 282.86 227.481 284.56 228.821 285.932C230.162 287.304 231.89 288.445 234.017 289.367C236.133 290.278 238.836 291.222 242.115 292.187C246.114 293.361 249.348 294.503 251.83 295.622C254.3 296.741 256.405 298.344 258.144 300.429C259.872 302.514 260.736 305.202 260.736 308.505C260.736 311.501 259.85 314.19 258.1 316.549C256.338 318.908 253.912 320.741 250.811 322.036C247.698 323.353 244.186 324 240.242 324Z" fill="#1A1A1A"/>
<path d="M331.356 322.782C332.132 321.871 332.785 320.719 333.328 319.347C333.86 317.976 334.137 316.582 334.137 315.155V271.392H328.41C325.308 271.392 322.693 271.853 320.578 272.764C318.462 273.674 316.7 274.936 315.294 276.539C313.887 278.141 312.568 280.16 311.306 282.596H310.408L312.38 269.79H364.468L366.351 282.596H365.453C364.257 280.16 362.95 278.141 361.521 276.539C360.092 274.936 358.308 273.674 356.192 272.764C354.077 271.853 351.496 271.392 348.449 271.392H342.633V315.155C342.633 316.582 342.899 317.976 343.442 319.347C343.974 320.719 344.638 321.86 345.414 322.782V323.166H331.367V322.782H331.356Z" fill="#1A1A1A"/>
<path d="M444.395 324C436.873 324 430.98 322.486 426.715 319.468C422.45 316.45 420.312 312.159 420.312 306.618V277.801C420.312 276.374 420.046 274.98 419.503 273.609C418.971 272.237 418.307 271.096 417.531 270.174V269.79H431.578V270.174C430.802 271.085 430.149 272.237 429.606 273.609C429.074 274.98 428.797 276.385 428.797 277.801V306.618C428.797 311.391 430.392 315.089 433.583 317.712C436.773 320.335 440.994 321.641 446.245 321.641C451.496 321.641 455.716 320.335 458.907 317.712C462.097 315.1 463.692 311.402 463.692 306.618V277.801C463.692 276.429 463.36 275.156 462.706 273.993C462.053 272.829 461.067 271.557 459.749 270.185V269.801H469.951V270.185C468.633 271.557 467.658 272.829 466.993 273.993C466.34 275.167 466.007 276.429 466.007 277.801V306.618C466.007 312.105 464.069 316.373 460.192 319.424C456.348 322.475 451.075 324 444.395 324Z" fill="#1A1A1A"/>
<path d="M526.9 322.782C527.676 321.871 528.329 320.719 528.872 319.347C529.415 317.976 529.681 316.582 529.681 315.155V277.801C529.681 276.374 529.415 274.98 528.872 273.609C528.34 272.237 527.676 271.096 526.9 270.174V269.79H549.632C555.481 269.79 560.82 270.679 565.65 272.456C570.48 274.234 574.38 277.109 577.326 281.071C580.284 285.032 581.757 290.168 581.757 296.467C581.757 302.766 580.284 307.902 577.326 311.863C574.368 315.825 570.48 318.7 565.65 320.478C560.82 322.255 555.481 323.144 549.632 323.144H526.9V322.782ZM547.583 321.487C552.357 321.487 556.589 320.653 560.289 318.974C563.989 317.295 566.924 314.585 569.107 310.854C571.289 307.122 572.374 302.327 572.374 296.478C572.374 290.629 571.289 285.855 569.107 282.146C566.924 278.437 563.989 275.727 560.289 274.026C556.589 272.325 552.357 271.469 547.583 271.469C544.724 271.469 541.589 271.853 538.189 272.61V320.335C541.578 321.103 544.713 321.487 547.583 321.487Z" fill="#1A1A1A"/>
<path d="M638.332 322.782C639.107 321.871 639.761 320.719 640.304 319.347C640.847 317.976 641.113 316.582 641.113 315.155V277.801C641.113 276.374 640.847 274.98 640.304 273.609C639.772 272.237 639.107 271.096 638.332 270.174V269.79H652.113V270.174C651.337 271.085 650.684 272.237 650.141 273.609C649.598 274.98 649.332 276.385 649.332 277.801V315.155C649.332 316.582 649.598 317.976 650.141 319.347C650.673 320.719 651.337 321.86 652.113 322.782V323.166H638.332V322.782Z" fill="#1A1A1A"/>
<path d="M737.589 324C731.862 324 726.822 322.859 722.468 320.565C718.115 318.283 714.725 315.046 712.31 310.887C709.895 306.727 708.688 301.921 708.688 296.478C708.688 291.035 709.895 286.239 712.31 282.069C714.725 277.899 718.115 274.673 722.468 272.391C726.822 270.108 731.862 268.956 737.589 268.956C743.317 268.956 748.357 270.097 752.71 272.391C757.064 274.673 760.454 277.91 762.869 282.069C765.284 286.239 766.491 291.046 766.491 296.478C766.491 301.921 765.284 306.717 762.869 310.887C760.454 315.057 757.064 318.283 752.71 320.565C748.357 322.859 743.317 324 737.589 324ZM737.589 322.321C741.467 322.321 744.878 321.224 747.836 319.04C750.794 316.856 753.076 313.806 754.682 309.888C756.289 305.97 757.097 301.504 757.097 296.467C757.097 291.43 756.289 286.964 754.682 283.046C753.076 279.128 750.794 276.089 747.836 273.894C744.878 271.71 741.467 270.613 737.589 270.613C733.712 270.613 730.3 271.71 727.342 273.894C724.385 276.078 722.103 279.128 720.496 283.046C718.89 286.964 718.081 291.43 718.081 296.467C718.081 301.504 718.89 305.97 720.496 309.888C722.103 313.806 724.385 316.856 727.342 319.04C730.289 321.235 733.701 322.321 737.589 322.321Z" fill="#1A1A1A"/>
<path d="M546.919 185.808H426.903L430.082 178.96C449.845 138.884 475.601 114.006 499.529 98.5553L495.374 89.6994C472.953 97.3152 454.01 108.069 439.587 117.979C409.744 138.478 392.252 159.888 392.086 160.096L375.912 178.773L459.771 0L498.498 82.5665C518.117 76.4541 540.162 72.7889 564.034 73.9192L591.164 75.2031L564.389 79.6804C564.211 79.7133 563.923 79.7572 563.536 79.8121C553.632 81.2167 531.654 85.8696 507.028 100.739L546.919 185.808ZM436.109 179.991H537.714L502.021 103.888C479.345 118.681 455.018 142.297 436.109 179.991ZM459.771 13.805L398.411 144.601C406.653 136.349 419.403 124.783 436.075 113.304C450.764 103.197 470.051 92.2234 492.871 84.3991L459.771 13.805ZM500.991 87.8888L504.536 95.4497C516.057 88.5582 527.024 83.8065 536.506 80.5473C523.955 81.8861 512.091 84.4759 500.991 87.8888Z" fill="#FF5722"/>
<path d="M585.938 75.6233C591.379 55.2011 595.013 38.4425 594.055 38.1919C593.097 37.9414 587.909 54.2938 582.467 74.716C577.026 95.1382 573.392 111.897 574.35 112.147C575.309 112.398 580.497 96.0455 585.938 75.6233Z" fill="#FF5722"/>
<path d="M621.53 84.9293C621.783 83.9799 605.276 78.8408 584.66 73.4506C564.044 68.0605 547.127 64.4604 546.874 65.4098C546.621 66.3591 563.128 71.4983 583.744 76.8884C604.36 82.2786 621.277 85.8786 621.53 84.9293Z" fill="#FF5722"/>
</svg>
