<svg width="353" height="421" viewBox="0 0 353 421" fill="none" xmlns="http://www.w3.org/2000/svg">
<g clip-path="url(#clip0_536_3801)">
<path d="M249.632 180.311C258.747 180.225 266.342 185.114 272.08 192.661C273.515 194.548 274.528 196.606 274.612 199.093C274.781 202.695 273.684 204.925 271.068 205.869C268.283 206.898 265.751 205.954 263.894 202.781C261.194 197.978 256.974 195.405 252.08 193.776C250.307 193.261 248.451 193.176 246.594 192.747C243.303 191.975 240.855 189.145 240.855 186.143C240.855 182.627 242.375 180.997 245.835 180.654C247.1 180.568 248.282 180.311 249.632 180.311Z" fill="#23353D"/>
<path d="M273.43 167.789C273.346 168.218 273.346 168.99 273.177 169.676C272.671 172.163 270.561 174.393 268.282 174.565C265.835 174.736 263.979 173.45 262.966 171.306C261.869 169.076 261.109 166.674 260.097 164.359C257.902 159.47 253.936 156.383 249.801 153.381C247.353 151.666 246.594 148.664 247.775 145.834C248.872 143.175 251.235 141.889 254.273 142.746C260.603 144.462 265.16 148.835 268.704 154.067C271.489 158.012 273.43 162.472 273.43 167.789Z" fill="#21343A"/>
<path d="M272.418 227.824C271.827 224.823 270.055 222.421 268.621 219.934C265.92 215.389 262.207 212.816 257.481 209.985C251.995 206.641 246.088 206.726 240.012 206.641C238.071 206.641 231.235 207.67 228.872 208.956C226.003 210.586 225.496 214.531 227.437 217.19C229.294 219.763 231.91 219.505 234.273 218.991C239.505 217.876 244.653 218.39 249.548 220.02C255.371 221.992 259 226.366 261.194 232.198C262.797 236.572 264.57 237.516 268.874 236.487C271.996 235.114 273.262 232.113 272.418 227.824Z" fill="#283739"/>
<path d="M316.049 99.0066C315.627 98.149 315.374 97.7202 314.193 96.8625C313.095 96.0049 308.707 96.0906 307.019 96.7767C304.909 97.6344 304.741 99.7785 304.741 101.751C304.741 107.755 304.656 120.705 304.741 126.451C305.922 126.194 305.585 127.137 306.513 127.48C306.682 127.566 306.935 127.566 307.104 127.566C307.104 128.081 307.272 128.595 307.526 129.11C309.973 131.34 310.901 134.427 312.252 137.343C313.349 138.029 313.18 139.144 313.349 140.173C313.771 142.918 313.264 145.662 313.517 148.492C313.686 149.093 313.855 149.865 314.783 149.779C316.049 147.206 316.218 141.631 316.218 141.631L316.387 103.466C316.471 103.466 316.809 100.293 316.049 99.0066Z" fill="#233440"/>
<path d="M302.039 164.873C295.794 162.644 291.744 158.613 290.562 151.751C290.056 148.664 290.309 145.576 290.14 142.489C290.056 139.745 288.452 137.6 286.343 137.429C284.739 137.343 283.304 137.6 283.304 137.6C280.773 138.029 280.266 140.002 280.098 142.06C279.929 145.233 279.676 148.492 280.182 151.58C280.604 154.667 280.604 157.155 283.051 162.558C286.005 169.162 291.575 173.021 298.157 175.337C298.833 175.422 301.449 176.194 301.871 175.68C302.546 173.45 301.786 170.62 303.559 168.99C304.402 168.218 306.428 167.275 305.837 165.903C304.824 165.731 302.968 165.216 302.039 164.873Z" fill="#223137"/>
<path d="M330.732 140.602C330.648 138.115 328.622 136.829 326.09 136.571C323.474 136.314 321.871 138.029 321.28 140.002C320.858 141.288 321.196 142.746 321.28 144.119C321.449 149.522 320.942 154.753 317.651 159.299C315.035 161.957 311.997 164.102 308.452 165.302C307.44 165.645 305.752 165.817 304.57 165.903C304.148 167.361 306.68 169.247 307.777 169.762C310.562 170.019 308.706 173.879 310.393 175.251C314.613 176.023 321.786 172.078 324.656 168.218C325.753 166.76 327.609 163.501 328.285 162.129C331.66 155.354 331.069 147.978 330.732 140.602Z" fill="#223137"/>
<path d="M301.786 205.011C295.541 202.781 291.49 198.75 290.308 191.889C289.802 188.802 290.055 185.714 289.886 182.627C289.802 179.882 288.198 177.738 286.089 177.567C284.485 177.481 283.051 177.738 283.051 177.738C280.519 178.167 280.012 180.14 279.844 182.198C279.675 185.371 279.422 188.63 279.928 191.718C280.35 194.805 280.35 197.292 282.797 202.695C285.751 209.299 291.321 213.159 297.904 215.474C298.579 215.56 301.195 216.332 301.617 215.817C302.292 213.588 301.532 210.757 303.305 209.128C304.149 208.356 306.174 207.412 305.583 206.04C304.57 205.869 302.714 205.354 301.786 205.011Z" fill="#223137"/>
<path d="M330.478 180.74C330.394 178.253 328.368 176.966 325.836 176.709C323.22 176.452 321.617 178.167 321.026 180.14C320.604 181.426 320.942 182.884 321.026 184.256C321.195 189.659 320.689 194.891 317.397 199.437C314.781 202.095 311.743 204.239 308.199 205.44C307.186 205.783 305.498 205.955 304.316 206.04C303.895 207.498 306.426 209.385 307.523 209.9C310.308 210.157 308.452 214.016 310.14 215.389C314.359 216.161 321.532 212.215 324.402 208.356C325.499 206.898 327.356 203.639 328.031 202.267C331.406 195.491 330.816 188.116 330.478 180.74Z" fill="#223137"/>
<path d="M305.33 156.812C305.752 156.897 306.005 157.155 306.09 157.498C305.836 157.326 305.583 157.069 305.33 156.812Z" fill="#8B3217"/>
<path d="M304.149 156.125C304.149 156.297 304.064 156.469 304.064 156.64C303.98 156.554 303.895 156.469 303.727 156.383C303.895 156.383 304.064 156.297 304.149 156.125Z" fill="#8B3217"/>
<path d="M119.5 334.944C120.344 334.086 121.188 334 121.947 334.944C121.103 334.944 120.26 334.944 119.5 334.944Z" fill="#203537"/>
<path d="M61.8603 224.908C65.5424 224.908 68.5273 221.875 68.5273 218.133C68.5273 214.391 65.5424 211.358 61.8603 211.358C58.1783 211.358 55.1934 214.391 55.1934 218.133C55.1934 221.875 58.1783 224.908 61.8603 224.908Z" fill="#23363C"/>
<path d="M48.6943 184.428C52.3764 184.428 55.3613 181.394 55.3613 177.652C55.3613 173.91 52.3764 170.877 48.6943 170.877C45.0122 170.877 42.0273 173.91 42.0273 177.652C42.0273 181.394 45.0122 184.428 48.6943 184.428Z" fill="#23363C"/>
<path d="M63.7158 101.751C67.3979 101.751 70.3828 98.7177 70.3828 94.9758C70.3828 91.2339 67.3979 88.2004 63.7158 88.2004C60.0338 88.2004 57.0488 91.2339 57.0488 94.9758C57.0488 98.7177 60.0338 101.751 63.7158 101.751Z" fill="#D9520C"/>
<path d="M202.878 35.9702C206.56 35.9702 209.545 32.9367 209.545 29.1948C209.545 25.4529 206.56 22.4194 202.878 22.4194C199.196 22.4194 196.211 25.4529 196.211 29.1948C196.211 32.9367 199.196 35.9702 202.878 35.9702Z" fill="#F8A516"/>
<path d="M137.39 35.7128C141.072 35.7128 144.057 32.6794 144.057 28.9375C144.057 25.1955 141.072 22.1621 137.39 22.1621C133.708 22.1621 130.723 25.1955 130.723 28.9375C130.723 32.6794 133.708 35.7128 137.39 35.7128Z" fill="#F8AF16"/>
<path d="M277.143 101.494C280.826 101.494 283.81 98.4604 283.81 94.7185C283.81 90.9766 280.826 87.9431 277.143 87.9431C273.461 87.9431 270.477 90.9766 270.477 94.7185C270.477 98.4604 273.461 101.494 277.143 101.494Z" fill="#CF4B0C"/>
<path d="M80.0882 226.709C77.8096 237.43 81.3541 244.548 81.3541 244.548C81.3541 244.548 94.9412 246.435 101.861 238.545C113.423 225.251 104.815 198.665 104.815 198.665C104.815 198.665 100.68 203.296 94.8568 208.099C88.1054 213.588 81.8604 218.133 80.0882 226.709Z" fill="url(#paint0_linear_536_3801)"/>
<path d="M80.4258 241.975L81.3541 244.548C81.3541 244.548 94.9412 246.435 101.861 238.545C109.119 230.226 108.444 216.675 106.925 207.67C106.925 207.584 106.925 207.498 106.925 207.498C106.925 207.498 102.705 221.478 99.6671 225.938C92.4094 236.487 80.4258 241.975 80.4258 241.975Z" fill="url(#paint1_linear_536_3801)"/>
<path d="M63.4638 188.973C62.1135 199.865 66.3331 206.641 66.3331 206.641C66.3331 206.641 80.089 207.327 86.2496 198.75C96.6298 184.428 85.6589 158.698 85.6589 158.698C85.6589 158.698 82.03 163.759 76.6289 168.99C70.2152 175.165 64.4765 180.225 63.4638 188.973Z" fill="url(#paint2_linear_536_3801)"/>
<path d="M65.1523 204.153L66.3338 206.641C66.3338 206.641 80.0897 207.327 86.2503 198.75C92.7485 189.831 90.8919 176.366 88.5289 167.532C88.5289 167.446 88.4445 167.361 88.4445 167.361C88.4445 167.361 85.4908 181.683 82.8747 186.4C76.6297 197.55 65.1523 204.153 65.1523 204.153Z" fill="url(#paint3_linear_536_3801)"/>
<path d="M46.5 152.181C45.9093 162.558 50.2977 168.733 50.2977 168.733C50.2977 168.733 63.294 168.476 68.6107 159.985C77.4719 145.748 65.4882 122.163 65.4882 122.163C65.4882 122.163 62.3657 127.137 57.5554 132.541C52.0699 138.716 46.922 143.861 46.5 152.181Z" fill="url(#paint4_linear_536_3801)"/>
<path d="M49.0312 166.417L50.2971 168.647C50.2971 168.647 63.2935 168.39 68.6102 159.899C74.1801 150.98 71.5639 138.373 68.779 130.225C68.779 130.139 68.6946 130.053 68.6946 130.053C68.6946 130.053 66.7536 143.861 64.6438 148.493C59.4959 159.471 49.0312 166.417 49.0312 166.417Z" fill="url(#paint5_linear_536_3801)"/>
<path d="M33.9261 155.697C39.3272 164.616 38.2301 172.078 38.2301 172.078C38.2301 172.078 26.584 178.081 17.976 173.193C3.54501 164.959 3.12305 138.373 3.12305 138.373C3.12305 138.373 8.18657 141.289 14.9379 143.69C22.702 146.434 29.6221 148.578 33.9261 155.697Z" fill="url(#paint6_linear_536_3801)"/>
<path d="M38.3143 169.505L38.2299 172.078C38.2299 172.078 26.5839 178.081 17.9759 173.193C8.94593 168.047 5.40146 155.611 3.9668 147.12C3.9668 147.035 3.9668 146.949 3.9668 146.949C3.9668 146.949 12.0684 158.184 16.1192 161.186C25.8243 168.39 38.3143 169.505 38.3143 169.505Z" fill="url(#paint7_linear_536_3801)"/>
<path d="M44.6433 196.435C51.479 204.925 51.479 212.902 51.479 212.902C51.479 212.902 40.1705 220.878 30.5498 217.018C14.3465 210.5 10.127 182.798 10.127 182.798C10.127 182.798 15.8656 185.114 23.2077 186.658C31.6469 188.459 39.2422 189.659 44.6433 196.435Z" fill="url(#paint8_linear_536_3801)"/>
<path d="M51.1414 210.243L51.479 212.987C51.479 212.987 40.1705 220.963 30.5498 217.104C20.3384 212.987 14.9373 200.637 12.2367 191.889C12.2367 191.804 12.1523 191.718 12.1523 191.718C12.1523 191.718 22.195 202.267 26.8365 204.84C38.0607 210.843 51.1414 210.243 51.1414 210.243Z" fill="url(#paint9_linear_536_3801)"/>
<path d="M58.7375 237.344C67.8519 243.262 70.2148 250.895 70.2148 250.895C70.2148 250.895 61.9444 262.044 51.5642 261.358C34.0951 260.329 21.6895 235.286 21.6895 235.286C21.6895 235.286 27.8501 235.629 35.2766 234.771C43.9689 233.828 51.4798 232.627 58.7375 237.344Z" fill="url(#paint10_linear_536_3801)"/>
<path d="M69.1184 248.408L70.2154 250.895C70.2154 250.895 61.945 262.044 51.5648 261.358C40.5939 260.672 31.6483 250.638 26.5004 243.176C26.5004 243.09 26.416 243.005 26.416 243.005C26.416 243.005 39.1592 249.866 44.3915 250.809C56.8815 253.125 69.1184 248.408 69.1184 248.408Z" fill="url(#paint11_linear_536_3801)"/>
<path d="M23.2089 123.878C27.4285 133.398 34.0955 136.743 34.0955 136.743C34.0955 136.743 45.5728 130.396 46.4167 120.362C47.8514 103.552 26.5002 88.2004 26.5002 88.2004C26.5002 88.2004 25.9939 94.1182 24.1372 101.151C22.0274 109.298 19.8332 116.245 23.2089 123.878Z" fill="url(#paint12_linear_536_3801)"/>
<path d="M31.3956 133.398C31.7332 134.77 34.0118 136.743 34.0118 136.743C34.0118 136.743 45.4891 130.396 46.333 120.362C47.2613 109.813 39.1597 99.8645 33.0834 93.861C32.9991 93.7752 32.9147 93.6895 32.9147 93.6895C32.9147 93.6895 37.4718 106.811 37.6406 111.957C37.8938 119.59 33.2522 125.251 31.48 129.539C31.2268 130.311 30.9736 131.769 31.3956 133.398Z" fill="url(#paint13_linear_536_3801)"/>
<path d="M99.4976 127.909C94.4341 129.968 84.1383 126.108 81.7753 121.134C80.5938 118.647 81.4377 116.331 84.0539 115.13C88.8642 112.986 98.9069 115.817 101.861 120.191C103.97 123.364 103.042 126.451 99.4976 127.909Z" fill="#23363C"/>
<path d="M110.131 109.984C104.73 110.499 95.9536 103.724 95.1097 98.3205C94.6877 95.576 96.1224 93.6034 98.9917 93.2604C104.224 92.5743 113.001 98.2347 114.604 103.295C115.786 106.897 113.929 109.556 110.131 109.984Z" fill="#23363C"/>
<path d="M124.646 92.8318C119.244 91.8883 112.577 83.0546 113.084 77.6515C113.337 74.8213 115.278 73.3633 118.147 73.7064C123.38 74.3925 130.384 82.197 130.722 87.5144C130.891 91.3738 128.443 93.5179 124.646 92.8318Z" fill="#23363C"/>
<path d="M144.562 80.8246C139.583 78.6805 135.026 68.4746 136.798 63.3288C137.727 60.6701 139.921 59.6409 142.621 60.7558C147.516 62.6427 152.58 71.9052 151.651 77.1368C150.976 80.8246 148.107 82.3684 144.562 80.8246Z" fill="#23363C"/>
<path d="M166.59 75.25C163.214 70.9618 164.058 59.7267 168.025 56.0389C170.05 54.1521 172.497 54.3236 174.354 56.5535C177.73 60.5844 177.899 71.2191 174.607 75.3358C172.16 78.4233 168.953 78.3375 166.59 75.25Z" fill="#23363C"/>
<path d="M204.06 64.2722C205.748 69.5038 201.191 79.7097 196.212 81.7681C193.68 82.7972 191.486 81.768 190.473 79.0236C188.616 74.0493 192.161 64.0149 196.634 61.2704C199.925 59.3836 202.879 60.5843 204.06 64.2722Z" fill="#23363C"/>
<path d="M228.533 79.4524C228.196 84.9413 220.347 92.7459 214.946 92.8316C212.161 92.8316 210.473 91.1164 210.558 88.1146C210.642 82.7972 217.478 74.8212 222.71 73.9635C226.339 73.3632 228.702 75.5073 228.533 79.4524Z" fill="#23363C"/>
<path d="M247.69 99.9501C245.918 105.182 236.212 110.499 231.065 109.041C228.364 108.355 227.267 106.125 228.111 103.295C229.63 98.2348 238.322 92.4029 243.555 93.0032C247.183 93.5178 248.871 96.2623 247.69 99.9501Z" fill="#23363C"/>
<path d="M260.517 122.077C257.478 126.709 246.761 129.196 242.119 126.451C239.756 125.079 239.165 122.592 240.684 120.191C243.469 115.645 253.343 112.386 258.238 114.273C261.698 115.731 262.626 118.818 260.517 122.077Z" fill="#23363C"/>
<path d="M250.222 60.6701C245.581 65.4729 247.522 71.3906 248.028 72.5913C248.872 74.7354 254.104 81.1677 262.29 78.9379C275.962 75.0785 278.831 53.8948 278.831 53.8948C278.831 53.8948 274.611 54.1521 268.451 54.7524C261.277 55.4385 255.032 55.6958 250.222 60.6701Z" fill="url(#paint14_linear_536_3801)"/>
<path d="M249.293 70.1042C248.449 70.6188 247.859 71.3049 248.196 72.7629C248.534 74.564 253.85 81.3393 262.712 79.1095C271.404 76.9654 275.455 67.8744 277.565 59.7268C277.565 59.641 277.818 58.8691 277.818 58.8691C277.818 58.8691 267.944 66.5022 263.978 68.1317C257.986 70.6188 256.804 70.0185 252.838 69.847C252.078 69.7612 250.306 69.4181 249.293 70.1042Z" fill="url(#paint15_linear_536_3801)"/>
<path d="M223.639 40.9445C221.614 47.3768 226.002 51.7508 226.931 52.6084C228.619 54.1522 236.129 57.5827 242.459 51.7508C253.008 42.0594 246.172 21.8191 246.172 21.8191C246.172 21.8191 242.459 23.9632 237.311 27.308C231.235 31.1674 225.749 34.3407 223.639 40.9445Z" fill="url(#paint16_linear_536_3801)"/>
<path d="M226.93 49.6924C226.423 50.55 226.255 51.4077 227.099 52.5226C228.196 53.9806 235.96 57.6684 242.88 51.5792C249.631 45.6615 249.294 35.7986 247.606 27.4795C247.606 27.3937 247.437 26.6218 247.437 26.6218C247.437 26.6218 241.952 37.9427 239.167 41.2017C234.947 46.0903 233.597 46.0903 229.968 47.8056C229.293 48.2344 227.521 48.749 226.93 49.6924Z" fill="url(#paint17_linear_536_3801)"/>
<path d="M159.332 26.6218C160.513 33.2257 166.336 35.0267 167.602 35.3698C169.796 35.8844 178.067 35.3698 180.936 27.308C185.831 13.7572 170.472 -0.908447 170.472 -0.908447C170.472 -0.908447 168.193 2.69365 165.155 8.18255C161.526 14.4433 158.15 19.7607 159.332 26.6218Z" fill="url(#paint18_linear_536_3801)"/>
<path d="M166.253 32.8827C166.169 33.9118 166.422 34.7695 167.688 35.3698C169.375 36.1417 177.815 35.7129 181.19 27.1365C184.482 18.7316 179.587 10.0694 174.27 3.55134L173.764 2.86523C173.764 2.86523 174.101 15.4726 173.089 19.675C171.57 26.0215 170.388 26.7077 167.941 29.8809C167.688 30.3955 166.337 31.682 166.253 32.8827Z" fill="url(#paint19_linear_536_3801)"/>
<path d="M120.596 40.6871C122.959 46.9479 118.824 51.5791 117.98 52.5225C116.377 54.152 109.035 57.9257 102.452 52.5225C91.3967 43.4315 97.1354 22.8481 97.1354 22.8481C97.1354 22.8481 100.933 24.735 106.334 27.8225C112.495 31.3388 118.065 34.169 120.596 40.6871Z" fill="url(#paint20_linear_536_3801)"/>
<path d="M117.727 49.6924C118.317 50.55 118.57 51.4076 117.727 52.5226C116.714 54.0663 109.203 58.0972 101.945 52.5226C94.8563 47.0337 94.6875 37.085 95.9534 28.6802C95.9534 28.5944 96.0378 27.8225 96.0378 27.8225C96.0378 27.8225 102.114 38.8003 105.068 41.9736C109.541 46.6906 110.891 46.6049 114.604 48.0628C115.279 48.2344 117.051 48.749 117.727 49.6924Z" fill="url(#paint21_linear_536_3801)"/>
<path d="M90.637 60.756C95.1097 65.7303 92.9155 71.5622 92.4092 72.7629C91.4809 74.907 85.9954 81.1678 77.8938 78.5949C64.3067 74.3067 62.2812 52.9514 62.2812 52.9514C62.2812 52.9514 66.5009 53.2945 72.5771 54.1521C79.7504 55.0955 85.9954 55.6101 90.637 60.756Z" fill="url(#paint22_linear_536_3801)"/>
<path d="M91.2271 70.1899C92.071 70.7045 92.5774 71.4764 92.2398 72.8486C91.8179 74.6496 86.3324 81.2534 77.5556 78.6805C68.9476 76.1934 65.2344 67.0166 63.3778 58.6975C63.3778 58.6117 63.209 57.8398 63.209 57.8398C63.209 57.8398 72.8297 65.8159 76.7117 67.617C82.5347 70.2756 83.8006 69.7611 87.7671 69.7611C88.4422 69.7611 90.2144 69.5038 91.2271 70.1899Z" fill="url(#paint23_linear_536_3801)"/>
<path d="M122.115 195.749C133.086 188.888 145.998 184.942 159.838 184.942C179.332 184.942 197.055 192.833 210.051 205.612C210.22 205.44 210.473 205.269 210.642 205.097C223.807 193.605 232.162 176.623 232.162 157.584C232.162 123.107 204.65 95.1475 170.724 95.1475C136.799 95.1475 109.287 123.107 109.287 157.584C109.287 171.906 114.013 185.028 121.946 195.577C122.03 195.663 122.03 195.749 122.115 195.749Z" fill="url(#paint24_linear_536_3801)"/>
<path d="M122.115 195.749C133.086 188.888 145.998 184.942 159.838 184.942C179.332 184.942 197.055 192.833 210.051 205.612C210.22 205.44 210.473 205.269 210.642 205.097C223.807 193.605 232.162 176.623 232.162 157.584C232.162 144.633 228.28 132.541 221.613 122.592C221.613 122.592 219.419 119.848 198.236 120.791C179.501 121.563 157.391 127.481 137.221 134.942C121.777 140.688 109.962 148.15 109.962 148.15C109.456 151.237 109.287 154.41 109.287 157.669C109.287 171.992 114.013 185.114 121.946 195.663C122.03 195.663 122.03 195.749 122.115 195.749Z" fill="url(#paint25_linear_536_3801)"/>
<path d="M122.116 195.749C133.087 188.888 145.999 184.942 159.839 184.942C179.334 184.942 197.056 192.833 210.053 205.612C210.221 205.44 210.474 205.269 210.643 205.097C223.64 193.776 231.91 177.138 232.163 158.441C232.163 158.441 219.758 148.407 182.203 147.892C145.746 147.464 110.217 168.133 110.217 168.133C111.905 178.339 116.04 187.773 122.032 195.663C122.032 195.663 122.032 195.749 122.116 195.749Z" fill="url(#paint26_linear_536_3801)"/>
<path d="M122.115 195.749C133.086 188.888 145.998 184.942 159.838 184.942C179.333 184.942 197.055 192.833 210.052 205.612C210.22 205.44 210.474 205.269 210.642 205.097C217.816 198.922 223.47 191.117 227.268 182.198C227.268 182.198 209.039 168.047 175.113 167.704C136.124 167.275 114.857 183.57 114.857 183.57C114.857 183.57 114.857 183.57 114.857 183.656C116.798 187.944 119.161 191.975 121.946 195.663C122.031 195.663 122.031 195.749 122.115 195.749Z" fill="url(#paint27_linear_536_3801)"/>
<path d="M170.22 344.035C185.495 344.035 201.782 333.914 215.707 329.798C225.075 297.207 174.271 251.752 126.758 251.752C96.3769 251.752 69.6246 267.362 53.9277 291.118C82.3678 323.623 123.889 344.035 170.22 344.035Z" fill="url(#paint28_linear_536_3801)"/>
<path d="M170.22 344.035C183.554 344.035 196.55 342.319 208.872 339.146C204.989 304.154 170.642 263.674 127.94 263.674C100.259 263.674 75.8698 277.653 61.1855 298.923C89.2037 326.796 127.771 344.035 170.22 344.035Z" fill="url(#paint29_linear_536_3801)"/>
<path d="M170.219 344.035C184.903 344.035 199.081 341.976 212.5 338.203C200.516 309.214 172.245 288.888 139.163 288.888C115.871 288.888 94.8572 299.008 80.3418 315.218C105.744 333.314 136.716 344.035 170.219 344.035Z" fill="url(#paint30_linear_536_3801)"/>
<path d="M90.8906 322.251C114.014 336.059 141.104 344.035 169.966 344.035C181.612 344.035 193.005 342.748 203.976 340.261C190.811 318.391 167.012 303.811 139.922 303.811C121.187 303.811 104.056 310.758 90.8906 322.251Z" fill="url(#paint31_linear_536_3801)"/>
<path d="M110.723 331.17C110.723 331.17 133.508 317.962 141.104 313.588C159.839 302.782 192.836 294.978 192.836 294.978L216.888 302.611C216.888 302.611 220.348 305.87 218.998 306.127C199.672 309.986 169.628 323.365 152.412 332.199C136.631 340.261 110.723 331.17 110.723 331.17Z" fill="url(#paint32_linear_536_3801)"/>
<path d="M143.889 337.002C143.889 337.002 163.721 325.509 170.388 321.65C186.675 312.216 215.453 305.441 215.453 305.441L236.382 312.044C236.382 312.044 239.336 314.875 238.239 315.046C221.36 318.391 195.199 330.055 180.262 337.774C166.421 344.978 143.889 337.002 143.889 337.002Z" fill="url(#paint33_linear_536_3801)"/>
<path d="M318.159 225.08C316.64 225.509 315.121 231.083 315.121 231.083C315.121 231.083 313.771 226.109 311.999 224.908C309.72 223.365 306.766 225.509 306.597 226.624C305.585 231.598 304.994 238.288 303.813 244.034C303.222 243.862 302.715 243.691 302.293 243.519C296.048 241.289 291.998 237.258 290.816 230.397C290.31 227.31 290.563 224.222 290.394 221.135C290.31 218.39 288.706 216.246 286.597 216.075C284.993 215.989 283.558 216.246 283.558 216.246C281.027 216.675 280.52 218.648 280.352 220.706C280.183 223.879 279.93 227.138 280.436 230.226C280.858 233.313 280.858 235.8 283.305 241.204C286.259 247.807 291.829 251.667 298.411 253.982C298.665 253.982 299.34 254.154 300.015 254.325C296.555 261.272 293.01 267.962 289.381 273.537C287.356 272.936 282.63 267.619 281.027 265.989C277.482 262.301 274.36 258.099 270.14 255.183C267.524 252.524 264.823 250.123 261.701 247.979C254.19 242.833 245.835 239.488 237.227 237.001C224.315 233.313 213.007 226.795 203.048 217.618C192.921 208.27 181.444 201.323 167.688 198.836C163.131 197.978 158.49 198.236 153.932 197.55C151.147 197.121 148.447 200.466 148.784 203.296C149.206 207.327 151.063 209.299 154.945 209.728C159.333 210.243 163.806 210.157 167.941 211.529C178.153 214.874 187.098 220.277 195.031 227.653C205.496 237.43 217.48 244.548 231.235 248.665C242.882 252.181 253.937 257.07 263.136 265.475C266.596 269.334 270.225 273.022 273.178 277.31C274.697 279.54 277.567 282.713 278.495 285.544C276.554 287.087 274.107 288.717 271.406 290.604C271.406 290.604 270.9 290.861 269.971 291.204C268.368 289.317 266.258 287.087 264.57 285.286C261.11 281.598 250.308 273.451 248.705 272.593C241.109 268.391 232.754 266.59 224.653 264.103C223.387 263.588 222.121 262.988 220.94 262.473C216.129 260.329 211.066 258.614 206.762 255.355C203.977 253.21 201.445 250.723 198.576 248.665C197.394 247.807 196.297 246.864 195.2 245.921C192.078 243.433 189.377 240.432 185.833 238.459C182.457 235.8 179.25 232.97 175.705 230.569C168.11 225.423 159.755 222.678 150.641 221.907C147.772 221.649 144.902 221.392 142.118 221.821C138.742 222.25 136.21 225.337 136.463 228.51C136.716 231.684 139.079 234.085 142.286 234.085C155.705 234.085 167.266 238.974 177.478 247.55C182.71 252.181 188.364 256.298 193.259 261.358C202.795 271.221 216.636 275.509 222.037 277.053C229.801 279.283 237.565 281.513 244.654 285.458C245.413 286.058 246.173 286.573 246.848 287.259C249.802 290.175 253.515 292.405 255.372 296.35C248.873 298.065 241.362 299.266 234.864 298.237C199.673 292.405 159.587 270.621 131.4 272.164C105.154 273.622 81.6928 284.772 66.8398 304.412C71.1438 308.271 75.6166 311.873 80.2582 315.218C94.7736 299.094 115.787 288.888 139.079 288.888C169.798 288.888 165.832 300.467 230.392 312.731C226.594 314.36 222.796 315.99 218.999 317.448C193.597 327.225 168.701 331.084 167.519 331.17C146.506 332.457 125.745 331.77 108.023 331.17C124.564 338.717 144.649 344.292 171.823 344.292C246.595 344.292 310.142 287.259 321.788 232.284C322.801 227.567 321.535 224.051 318.159 225.08Z" fill="#223137"/>
<path d="M295.119 149.951C296.217 155.868 301.449 157.412 302.546 157.669C304.487 158.098 311.829 157.584 314.445 150.294C318.749 138.201 304.909 125.165 304.909 125.165C304.909 125.165 302.884 128.424 300.183 133.312C297.06 138.973 294.022 143.776 295.119 149.951Z" fill="url(#paint34_linear_536_3801)"/>
<path d="M305.5 157.669C307.019 158.355 312.252 156.04 314.699 150.122C317.146 144.204 313.18 134.942 308.37 129.11L307.863 128.51C307.863 128.51 307.779 140.86 307.441 143.518C306.682 149.35 304.403 157.155 305.5 157.669Z" fill="url(#paint35_linear_536_3801)"/>
<path d="M295.626 189.316C296.723 195.234 301.955 196.778 303.052 197.035C304.993 197.464 312.335 196.949 314.952 189.659C319.256 177.567 305.415 164.531 305.415 164.531C305.415 164.531 303.39 167.79 300.689 172.678C297.482 178.424 294.444 183.227 295.626 189.316Z" fill="url(#paint36_linear_536_3801)"/>
<path d="M306.007 197.121C307.526 197.807 312.758 195.491 315.205 189.574C317.653 183.656 313.686 174.393 308.876 168.562L308.37 167.961C308.37 167.961 308.285 180.311 307.948 182.97C307.188 188.802 304.825 196.521 306.007 197.121Z" fill="url(#paint37_linear_536_3801)"/>
<path d="M294.951 228.425C296.049 234.342 301.281 235.886 302.378 236.144C304.319 236.572 311.661 236.058 314.277 228.768C318.581 216.675 304.741 203.639 304.741 203.639C304.741 203.639 302.716 206.898 300.015 211.787C296.892 217.447 293.854 222.335 294.951 228.425Z" fill="url(#paint38_linear_536_3801)"/>
<path d="M305.332 236.143C306.851 236.83 312.084 234.514 314.531 228.596C316.979 222.678 313.012 213.416 308.202 207.584L307.695 206.984C307.695 206.984 307.611 219.334 307.273 221.992C306.514 227.824 304.235 235.629 305.332 236.143Z" fill="url(#paint39_linear_536_3801)"/>
<path d="M30.8045 362.731C34.0958 365.562 36.2056 369.421 36.2056 373.624C36.2056 375.167 34.8553 376.368 33.0831 376.368H28.1884C26.5005 376.368 25.1503 375.167 25.1503 373.624C25.1503 372.251 24.4751 370.965 23.2936 370.021C22.0278 368.992 20.3399 368.306 18.3145 368.306C16.3735 368.306 14.6013 368.906 13.3354 370.021C12.1539 370.965 11.4788 372.251 11.4788 373.624C11.4788 378.426 16.7111 382.457 21.859 386.402C29.0323 391.891 36.2056 397.294 36.2056 406.728C36.2056 411.017 34.0958 414.876 30.8045 417.62C27.5976 420.365 23.1249 421.994 18.3145 421.994C13.5042 421.994 9.11579 420.279 5.90889 417.62C2.53321 414.876 0.507812 410.931 0.507812 406.728C0.507812 406.042 0.845373 405.27 1.43612 404.756C2.02686 404.241 2.78639 403.984 3.54592 403.984H8.52505C9.28458 403.984 10.1285 404.241 10.6349 404.756C11.2256 405.27 11.5632 406.042 11.5632 406.728C11.5632 408.186 12.2383 409.473 13.4198 410.416C14.6857 411.445 16.3735 412.132 18.3989 412.132C20.4243 412.132 22.1965 411.445 23.378 410.416C24.5595 409.473 25.2347 408.186 25.2347 406.728C25.2347 401.926 20.0024 397.981 14.8544 394.035C7.68113 388.546 0.507812 383.143 0.507812 373.709C0.507812 369.421 2.61761 365.562 5.90889 362.817C9.11579 360.159 13.5886 358.443 18.3145 358.443C23.2092 358.357 27.5976 360.073 30.8045 362.731Z" fill="#223137"/>
<path d="M52.2407 358.014C52.9159 358.014 53.6754 358.272 54.1817 358.786C54.7725 359.215 55.0256 359.901 55.0256 360.587V405.699C55.0256 407.415 55.7852 409.044 57.051 410.159C58.2325 411.274 60.0048 411.96 61.8614 411.96C63.718 411.96 65.4903 411.274 66.6718 410.159C67.9376 409.044 68.6972 407.415 68.6972 405.699V360.587C68.6972 359.901 68.9503 359.215 69.5411 358.786C70.0474 358.272 70.7226 358.014 71.4821 358.014H76.9676C77.7271 358.014 78.4022 358.272 78.9086 358.786C79.4149 359.215 79.6681 359.901 79.6681 360.587V405.699C79.6681 410.245 77.7271 414.276 74.4358 417.277C71.2289 420.193 66.7561 422.08 61.8614 422.08C56.9667 422.08 52.4939 420.279 49.287 417.277C46.0801 414.276 44.0547 410.245 44.0547 405.699V360.587C44.0547 359.901 44.3079 359.215 44.8142 358.786C45.3206 358.272 46.0801 358.014 46.7552 358.014H52.2407Z" fill="#223137"/>
<path d="M96.7987 358.357C98.0645 358.357 99.246 359.129 99.668 360.244C101.693 365.647 107.601 381.342 110.386 388.718C110.47 388.975 110.808 389.233 111.23 389.147C111.567 389.061 111.905 388.804 111.905 388.461V361.102C111.905 359.558 113.255 358.357 114.943 358.357H119.922C121.61 358.357 122.96 359.644 122.96 361.102V418.564C122.96 419.507 122.538 420.365 121.779 421.051C121.104 421.651 120.091 422.08 119.078 422.08H114.69C113.002 422.08 111.567 421.137 110.977 419.679C108.782 413.847 103.212 398.838 100.512 391.634C100.343 391.377 100.09 391.119 99.668 391.205C99.3304 391.291 98.9929 391.548 98.9929 391.891V419.336C98.9929 420.108 98.6553 420.794 98.0645 421.308C97.4738 421.823 96.7143 422.08 95.9547 422.08H90.9756C89.2878 422.08 87.9375 420.879 87.9375 419.336V361.102C87.9375 359.558 89.2878 358.357 90.9756 358.357H96.7987Z" fill="#223137"/>
<path d="M195.876 363.074C199.083 366.076 201.108 370.107 201.108 374.567V374.738C201.108 376.282 199.758 377.568 198.07 377.568H193.175C191.487 377.568 190.137 376.282 190.137 374.738V374.567C190.137 372.851 189.377 371.308 188.112 370.193C186.846 369.078 185.158 368.392 183.301 368.392C181.445 368.392 179.672 369.078 178.491 370.193C177.225 371.308 176.55 372.851 176.55 374.567V405.871C176.55 408.872 178.238 410.759 180.348 411.445C181.276 411.788 182.289 411.96 183.301 411.96C184.314 411.96 185.411 411.788 186.255 411.445C188.449 410.673 190.137 408.787 190.137 405.871V397.723C190.137 397.037 189.799 396.265 189.209 395.836C188.618 395.322 187.858 395.064 187.099 395.064H186.339C185.58 395.064 184.736 394.807 184.23 394.207C183.639 393.692 183.301 393.006 183.301 392.32V387.774C183.301 386.231 184.652 385.03 186.339 385.03H198.154C198.914 385.03 199.758 385.287 200.348 385.802C200.939 386.316 201.192 387.088 201.192 387.774V405.871V419.078C201.192 420.622 199.842 421.823 198.154 421.823H191.234C190.643 421.823 190.137 421.394 190.137 420.794C187.943 421.565 185.58 421.994 183.301 421.994C180.938 421.994 178.491 421.565 176.212 420.708C170.22 418.478 165.41 413.504 165.41 405.785V374.481C165.41 370.021 167.436 365.905 170.642 362.989C173.849 360.073 178.322 358.186 183.217 358.186C188.112 358.186 192.584 360.158 195.876 363.074Z" fill="#223137"/>
<path d="M226.51 358.186C231.405 358.186 235.878 359.987 239.085 362.989C242.292 365.905 244.317 370.021 244.317 374.481V383.229C244.317 389.575 238.663 397.809 231.743 399.181C231.405 399.181 231.152 399.353 231.067 399.696C230.899 399.953 230.983 400.21 231.152 400.467C233.346 403.641 239.76 412.989 243.473 418.306C243.979 419.078 243.979 420.022 243.557 420.794C243.051 421.565 242.123 422.08 241.194 422.08H234.865C233.937 422.08 233.093 421.651 232.586 420.965C230.139 417.363 222.713 406.557 220.35 403.126C220.265 403.04 220.096 402.955 219.928 403.04C219.759 403.04 219.674 403.212 219.674 403.383V419.679C219.674 421.051 218.493 422.166 216.974 422.166H211.32C210.56 422.166 209.885 421.909 209.379 421.48C208.872 421.051 208.619 420.365 208.619 419.679C208.619 409.558 208.619 370.879 208.619 360.673C208.619 359.301 209.885 358.186 211.32 358.186H226.51ZM222.291 368.22C220.856 368.22 219.59 369.335 219.59 370.707V387.003C219.59 388.375 220.772 389.404 222.291 389.404H226.51C228.367 389.404 230.139 388.718 231.321 387.603C232.586 386.488 233.346 384.944 233.346 383.229V374.481C233.346 372.766 232.586 371.222 231.321 370.107C229.548 368.392 227.439 368.22 225.16 368.22C224.147 368.134 223.303 368.22 222.291 368.22Z" fill="#223137"/>
<path d="M275.373 358.357C276.554 358.357 277.483 359.044 277.736 360.073C279.93 368.906 289.973 408.615 292.673 419.336C292.842 420.022 292.673 420.708 292.251 421.223C291.829 421.737 291.07 422.08 290.395 422.08H284.065C282.968 422.08 281.955 421.394 281.702 420.365C281.027 417.706 279.761 412.56 279.086 410.245C278.917 409.559 278.326 409.13 277.483 409.13H265.752C264.993 409.13 264.402 409.559 264.149 410.245C263.558 412.475 262.292 417.62 261.617 420.365C261.364 421.394 260.351 422.08 259.254 422.08H252.925C252.165 422.08 251.49 421.823 251.068 421.223C250.646 420.708 250.393 420.022 250.646 419.336C253.346 408.615 263.389 368.821 265.583 360.073C265.837 359.044 266.849 358.357 267.946 358.357H275.373ZM270.647 384.773C269.719 388.632 268.284 394.293 267.524 397.209C267.356 397.637 267.524 398.066 267.777 398.495C268.115 398.838 268.537 399.01 269.043 399.01H274.191C274.698 399.01 275.12 398.838 275.457 398.495C275.71 398.152 275.879 397.637 275.71 397.209C275.035 394.293 273.516 388.632 272.588 384.773C272.503 384.344 271.997 384.001 271.575 384.001C271.153 384.001 270.731 384.344 270.647 384.773Z" fill="#223137"/>
<path d="M306.935 358.357C307.695 358.357 308.539 358.615 309.129 359.215C309.72 359.73 309.973 360.416 309.973 361.188V419.336C309.973 420.022 309.636 420.794 309.129 421.308C308.539 421.823 307.779 422.08 306.935 422.08H302.04C301.197 422.08 300.437 421.823 299.846 421.308C299.256 420.794 298.918 420.022 298.918 419.336V361.188C298.918 360.416 299.256 359.73 299.846 359.215C300.437 358.7 301.197 358.357 302.04 358.357H306.935Z" fill="#223137"/>
<path d="M326.262 358.357C327.527 358.357 328.709 359.129 329.131 360.244C331.156 365.647 337.064 381.342 339.849 388.718C339.933 388.975 340.271 389.233 340.693 389.147C341.03 389.061 341.368 388.804 341.368 388.461V361.102C341.368 359.558 342.718 358.357 344.406 358.357H349.385C351.073 358.357 352.423 359.644 352.423 361.102V418.564C352.423 419.507 352.001 420.365 351.242 421.051C350.566 421.651 349.554 422.08 348.541 422.08H344.153C342.465 422.08 341.03 421.137 340.439 419.679C338.245 413.847 332.675 398.838 329.975 391.634C329.806 391.377 329.553 391.119 329.131 391.205C328.793 391.291 328.456 391.548 328.456 391.891V419.336C328.456 420.108 328.118 420.794 327.527 421.308C326.937 421.823 326.177 422.08 325.418 422.08H320.439C318.751 422.08 317.4 420.879 317.4 419.336V361.102C317.4 359.558 318.751 358.357 320.439 358.357H326.262Z" fill="#223137"/>
</g>
<defs>
<linearGradient id="paint0_linear_536_3801" x1="106.185" y1="206.202" x2="85.2743" y2="240.226" gradientUnits="userSpaceOnUse">
<stop stop-color="#DB5C15"/>
<stop offset="1" stop-color="#D44F12"/>
</linearGradient>
<linearGradient id="paint1_linear_536_3801" x1="109.756" y1="209.204" x2="86.2135" y2="247.51" gradientUnits="userSpaceOnUse">
<stop stop-color="#9D310E"/>
<stop offset="1" stop-color="#6D251B"/>
</linearGradient>
<linearGradient id="paint2_linear_536_3801" x1="87.6601" y1="166.173" x2="69.8948" y2="201.997" gradientUnits="userSpaceOnUse">
<stop stop-color="#DB5C15"/>
<stop offset="1" stop-color="#D44F12"/>
</linearGradient>
<linearGradient id="paint3_linear_536_3801" x1="91.4827" y1="168.838" x2="71.4816" y2="209.17" gradientUnits="userSpaceOnUse">
<stop stop-color="#9D310E"/>
<stop offset="1" stop-color="#6D251B"/>
</linearGradient>
<linearGradient id="paint4_linear_536_3801" x1="67.9604" y1="129.036" x2="53.456" y2="164.15" gradientUnits="userSpaceOnUse">
<stop stop-color="#DB5C15"/>
<stop offset="1" stop-color="#D44F12"/>
</linearGradient>
<linearGradient id="paint5_linear_536_3801" x1="71.7486" y1="131.31" x2="55.4189" y2="170.843" gradientUnits="userSpaceOnUse">
<stop stop-color="#9D310E"/>
<stop offset="1" stop-color="#6D251B"/>
</linearGradient>
<linearGradient id="paint6_linear_536_3801" x1="4.21472" y1="145.591" x2="33.4267" y2="169.446" gradientUnits="userSpaceOnUse">
<stop stop-color="#DB5C15"/>
<stop offset="1" stop-color="#D44F12"/>
</linearGradient>
<linearGradient id="paint7_linear_536_3801" x1="1.93214" y1="149.414" x2="34.8205" y2="176.271" gradientUnits="userSpaceOnUse">
<stop stop-color="#9D310E"/>
<stop offset="1" stop-color="#6D251B"/>
</linearGradient>
<linearGradient id="paint8_linear_536_3801" x1="12.221" y1="190.226" x2="46.0333" y2="210.924" gradientUnits="userSpaceOnUse">
<stop stop-color="#DB5C15"/>
<stop offset="1" stop-color="#D44F12"/>
</linearGradient>
<linearGradient id="paint9_linear_536_3801" x1="10.3769" y1="194.547" x2="48.4446" y2="217.85" gradientUnits="userSpaceOnUse">
<stop stop-color="#9D310E"/>
<stop offset="1" stop-color="#6D251B"/>
</linearGradient>
<linearGradient id="paint10_linear_536_3801" x1="26.0219" y1="241.678" x2="64.424" y2="250.945" gradientUnits="userSpaceOnUse">
<stop stop-color="#DB5C15"/>
<stop offset="1" stop-color="#D44F12"/>
</linearGradient>
<linearGradient id="paint11_linear_536_3801" x1="25.5913" y1="246.367" x2="68.8263" y2="256.8" gradientUnits="userSpaceOnUse">
<stop stop-color="#9D310E"/>
<stop offset="1" stop-color="#6D251B"/>
</linearGradient>
<linearGradient id="paint12_linear_536_3801" x1="31.782" y1="93.2385" x2="35.3396" y2="131.146" gradientUnits="userSpaceOnUse">
<stop stop-color="#FAB715"/>
<stop offset="0.5116" stop-color="#F7A40E"/>
<stop offset="1" stop-color="#D87007"/>
</linearGradient>
<linearGradient id="paint13_linear_536_3801" x1="35.9684" y1="93.505" x2="39.9738" y2="136.183" gradientUnits="userSpaceOnUse">
<stop stop-color="#D87007"/>
<stop offset="0.5051" stop-color="#CA4F10"/>
<stop offset="1" stop-color="#AD380F"/>
</linearGradient>
<linearGradient id="paint14_linear_536_3801" x1="277.062" y1="59.2375" x2="252.387" y2="72.4145" gradientUnits="userSpaceOnUse">
<stop stop-color="#FAB715"/>
<stop offset="0.5116" stop-color="#F7A40E"/>
<stop offset="1" stop-color="#D87007"/>
</linearGradient>
<linearGradient id="paint15_linear_536_3801" x1="279.942" y1="62.9822" x2="251.084" y2="78.3929" gradientUnits="userSpaceOnUse">
<stop stop-color="#D87007"/>
<stop offset="0.5051" stop-color="#CA4F10"/>
<stop offset="1" stop-color="#C44210"/>
</linearGradient>
<linearGradient id="paint16_linear_536_3801" x1="246.946" y1="27.3728" x2="230.655" y2="50.3564" gradientUnits="userSpaceOnUse">
<stop stop-color="#FAB715"/>
<stop offset="0.5116" stop-color="#F7A40E"/>
<stop offset="1" stop-color="#D87007"/>
</linearGradient>
<linearGradient id="paint17_linear_536_3801" x1="251.171" y1="29.4091" x2="232.117" y2="56.2888" gradientUnits="userSpaceOnUse">
<stop stop-color="#D87007"/>
<stop offset="0.5051" stop-color="#CA4F10"/>
<stop offset="1" stop-color="#C44210"/>
</linearGradient>
<linearGradient id="paint18_linear_536_3801" x1="173.697" y1="3.55325" x2="170.156" y2="31.6467" gradientUnits="userSpaceOnUse">
<stop stop-color="#FAB715"/>
<stop offset="0.5116" stop-color="#F7A40E"/>
<stop offset="1" stop-color="#D87007"/>
</linearGradient>
<linearGradient id="paint19_linear_536_3801" x1="178.37" y1="3.34967" x2="174.229" y2="36.2053" gradientUnits="userSpaceOnUse">
<stop stop-color="#D87007"/>
<stop offset="0.5051" stop-color="#CA4F10"/>
<stop offset="1" stop-color="#C44210"/>
</linearGradient>
<linearGradient id="paint20_linear_536_3801" x1="96.5319" y1="28.4817" x2="114.04" y2="50.5231" gradientUnits="userSpaceOnUse">
<stop stop-color="#FAB715"/>
<stop offset="0.5116" stop-color="#F7A40E"/>
<stop offset="1" stop-color="#D87007"/>
</linearGradient>
<linearGradient id="paint21_linear_536_3801" x1="92.421" y1="30.7487" x2="112.897" y2="56.5263" gradientUnits="userSpaceOnUse">
<stop stop-color="#D87007"/>
<stop offset="0.5051" stop-color="#CA4F10"/>
<stop offset="1" stop-color="#C44210"/>
</linearGradient>
<linearGradient id="paint22_linear_536_3801" x1="63.8601" y1="58.2573" x2="88.0537" y2="72.3217" gradientUnits="userSpaceOnUse">
<stop stop-color="#FAB715"/>
<stop offset="0.5116" stop-color="#F7A40E"/>
<stop offset="1" stop-color="#D87007"/>
</linearGradient>
<linearGradient id="paint23_linear_536_3801" x1="60.8473" y1="61.8925" x2="89.1421" y2="78.3411" gradientUnits="userSpaceOnUse">
<stop stop-color="#D87007"/>
<stop offset="0.5051" stop-color="#CA4F10"/>
<stop offset="1" stop-color="#C44210"/>
</linearGradient>
<linearGradient id="paint24_linear_536_3801" x1="110.427" y1="142.601" x2="232.787" y2="153.986" gradientUnits="userSpaceOnUse">
<stop stop-color="#F3A313"/>
<stop offset="0.5116" stop-color="#FDC221"/>
<stop offset="1" stop-color="#F3A313"/>
</linearGradient>
<linearGradient id="paint25_linear_536_3801" x1="109.423" y1="153.392" x2="231.783" y2="164.776" gradientUnits="userSpaceOnUse">
<stop stop-color="#EA770C"/>
<stop offset="0.5116" stop-color="#F38910"/>
<stop offset="1" stop-color="#C35011"/>
</linearGradient>
<linearGradient id="paint26_linear_536_3801" x1="126.766" y1="170.178" x2="218.887" y2="178.279" gradientUnits="userSpaceOnUse">
<stop stop-color="#E05710"/>
<stop offset="0.5116" stop-color="#E55B12"/>
<stop offset="1" stop-color="#9E3114"/>
</linearGradient>
<linearGradient id="paint27_linear_536_3801" x1="131.942" y1="180.633" x2="209.602" y2="187.858" gradientUnits="userSpaceOnUse">
<stop stop-color="#C7430F"/>
<stop offset="0.5116" stop-color="#CE450F"/>
<stop offset="1" stop-color="#7C2A18"/>
</linearGradient>
<linearGradient id="paint28_linear_536_3801" x1="53.8908" y1="297.921" x2="216.817" y2="297.921" gradientUnits="userSpaceOnUse">
<stop stop-color="#D15E0A"/>
<stop offset="0.2877" stop-color="#E98215"/>
<stop offset="0.5116" stop-color="#FBB71F"/>
<stop offset="0.8084" stop-color="#EA8A0C"/>
<stop offset="1" stop-color="#E05710"/>
</linearGradient>
<linearGradient id="paint29_linear_536_3801" x1="61.1796" y1="303.84" x2="208.886" y2="303.84" gradientUnits="userSpaceOnUse">
<stop stop-color="#CB420E"/>
<stop offset="0.5116" stop-color="#D64C11"/>
<stop offset="1" stop-color="#C94214"/>
</linearGradient>
<linearGradient id="paint30_linear_536_3801" x1="80.3306" y1="316.424" x2="212.497" y2="316.424" gradientUnits="userSpaceOnUse">
<stop stop-color="#DD6014"/>
<stop offset="0.5116" stop-color="#FDB620"/>
<stop offset="1" stop-color="#F8AC19"/>
</linearGradient>
<linearGradient id="paint31_linear_536_3801" x1="90.9186" y1="323.933" x2="203.944" y2="323.933" gradientUnits="userSpaceOnUse">
<stop stop-color="#BE440E"/>
<stop offset="0.5116" stop-color="#E4650E"/>
<stop offset="1" stop-color="#E46F0B"/>
</linearGradient>
<linearGradient id="paint32_linear_536_3801" x1="110.712" y1="315.228" x2="219.322" y2="315.228" gradientUnits="userSpaceOnUse">
<stop offset="0.1793" stop-color="#66271B"/>
<stop offset="0.4372" stop-color="#902A08"/>
<stop offset="0.7633" stop-color="#C8430E"/>
<stop offset="1" stop-color="#E35313"/>
</linearGradient>
<linearGradient id="paint33_linear_536_3801" x1="143.893" y1="323.141" x2="238.507" y2="323.141" gradientUnits="userSpaceOnUse">
<stop offset="0.294" stop-color="#782516"/>
<stop offset="0.5763" stop-color="#AF3411"/>
<stop offset="1" stop-color="#DD4112"/>
</linearGradient>
<linearGradient id="paint34_linear_536_3801" x1="307.865" y1="129.237" x2="304.924" y2="154.341" gradientUnits="userSpaceOnUse">
<stop stop-color="#FAB715"/>
<stop offset="0.5116" stop-color="#F7A40E"/>
<stop offset="1" stop-color="#D87007"/>
</linearGradient>
<linearGradient id="paint35_linear_536_3801" x1="313.09" y1="129.143" x2="309.684" y2="158.216" gradientUnits="userSpaceOnUse">
<stop stop-color="#B3440D"/>
<stop offset="0.5051" stop-color="#CA4F10"/>
<stop offset="1" stop-color="#69271B"/>
</linearGradient>
<linearGradient id="paint36_linear_536_3801" x1="308.312" y1="168.642" x2="305.371" y2="193.745" gradientUnits="userSpaceOnUse">
<stop stop-color="#FAB715"/>
<stop offset="0.5116" stop-color="#F7A40E"/>
<stop offset="1" stop-color="#D87007"/>
</linearGradient>
<linearGradient id="paint37_linear_536_3801" x1="313.537" y1="168.547" x2="310.131" y2="197.62" gradientUnits="userSpaceOnUse">
<stop stop-color="#B3440D"/>
<stop offset="0.5051" stop-color="#CA4F10"/>
<stop offset="1" stop-color="#69271B"/>
</linearGradient>
<linearGradient id="paint38_linear_536_3801" x1="307.707" y1="207.727" x2="304.765" y2="232.83" gradientUnits="userSpaceOnUse">
<stop stop-color="#FAB715"/>
<stop offset="0.5116" stop-color="#F7A40E"/>
<stop offset="1" stop-color="#D87007"/>
</linearGradient>
<linearGradient id="paint39_linear_536_3801" x1="312.932" y1="207.632" x2="309.525" y2="236.705" gradientUnits="userSpaceOnUse">
<stop stop-color="#B3440D"/>
<stop offset="0.5051" stop-color="#CA4F10"/>
<stop offset="1" stop-color="#69271B"/>
</linearGradient>
<clipPath id="clip0_536_3801">
<rect width="353" height="421" fill="white"/>
</clipPath>
</defs>
</svg>
